<?xml version="1.0" encoding="UTF-8"?>
<svg width="30px" height="31px" viewBox="0 0 30 31" version="1.1" xmlns="http://www.w3.org/2000/svg" xmlns:xlink="http://www.w3.org/1999/xlink">
    <!-- Generator: Sketch 53 (72520) - https://sketchapp.com -->
    <title>Group 10</title>
    <desc>Created with Sketch.</desc>
    <defs>
        <linearGradient x1="-18.6490885%" y1="100%" x2="164.557292%" y2="6.46809896%" id="linearGradient-1">
            <stop stop-color="#FFC4C8" offset="0%"></stop>
            <stop stop-color="#BEADFF" offset="55.2717096%"></stop>
            <stop stop-color="#349DEE" offset="100%"></stop>
        </linearGradient>
    </defs>
    <g id="Symbols" stroke="none" stroke-width="1" fill="none" fill-rule="evenodd">
        <g id="header" transform="translate(-24.000000, -9.000000)" fill="url(#linearGradient-1)">
            <g id="Group-10" transform="translate(24.000000, 9.500000)">
                <path d="M11.3488967,14.0122933 C11.346453,14.0617268 11.3437871,14.0935372 11.3433983,14.1254584 C11.3413433,14.3156 11.3435649,14.317983 11.5358437,14.3182601 C11.7577253,14.3185926 11.9796069,14.318371 12.2014884,14.318371 L12.6002643,14.318371 L12.6002643,14.0122933 L11.3488967,14.0122933 Z M23.1969279,9.41730509 L21.7220125,9.41730509 C21.7220125,9.88005145 21.7198465,10.3313816 21.7265668,10.7825454 C21.7269556,10.8139678 21.7918261,10.870772 21.8274271,10.8713262 C22.2477524,10.8775885 22.6682999,10.8775885 23.0886252,10.8712154 C23.1251704,10.8707166 23.1917627,10.8136907 23.1922625,10.7821021 C23.1990939,10.3311045 23.1969279,9.87994061 23.1969279,9.41730509 Z M9.06621029,15.2721272 C9.69953081,15.2610989 10.0793676,14.8525521 10.0810338,14.2672749 C10.0828666,13.6475273 9.64749,13.2523918 9.06093401,13.2660802 C8.45282857,13.2803228 8.03689089,13.6250273 8.03233663,14.2636173 C8.0281156,14.8595902 8.45466139,15.2642024 9.06621029,15.2721272 Z M12.6107613,12.8029459 L12.6107613,12.6351934 C12.6107613,9.25941714 12.6107613,5.88364086 12.6107613,2.50780917 C12.6107613,2.48009981 12.6087619,2.45222419 12.6109835,2.4247365 C12.6178149,2.34022294 12.5763266,2.30918846 12.4955717,2.30979806 C12.2687471,2.31162688 12.0419781,2.30918846 11.815209,2.31207023 C11.7804966,2.31251358 11.742674,2.32631284 11.712016,2.34388058 C11.4173218,2.51290769 11.1244603,2.68520451 10.8298216,2.85439788 C10.2873642,3.16585112 9.74390712,3.4756418 9.20111651,3.78643002 C8.69370475,4.0769904 8.18673732,4.3682158 7.67932556,4.65866534 C7.12003962,4.97887474 6.55736575,5.29337601 6.00341162,5.62245241 C5.88266807,5.69416424 5.76964454,5.80223075 5.69277744,5.9195522 C5.51188426,6.1953712 5.35503982,6.4868737 5.18842037,6.77200304 C4.98508911,7.1199218 4.77892531,7.466178 4.57914859,7.81614726 C4.31555663,8.27789608 4.06123981,8.74485427 3.7952041,9.20510679 C3.54399751,9.63970043 3.27923921,10.0664246 3.02714399,10.5004087 C2.80470703,10.8834075 2.58954578,11.2706181 2.37610627,11.65866 C2.3426713,11.719399 2.31873364,11.7944359 2.31862256,11.8629335 C2.31562341,14.0427182 2.31551233,16.222503 2.31878918,18.4022877 C2.31890026,18.4804281 2.3423936,18.5670476 2.38082715,18.6352126 C2.62470248,19.0676449 2.87663109,19.4955329 3.12444974,19.9258039 C3.32139393,20.267682 3.51472803,20.6116661 3.71256085,20.9530454 C3.90111853,21.2785196 4.1027836,21.5969002 4.27934467,21.9286921 C4.35038009,22.0621404 4.42552546,22.1058657 4.57564959,22.1056995 C8.15791215,22.1009889 11.7402303,22.1020419 15.3225484,22.1020419 L15.5159935,22.1020419 L15.5159935,23.3040186 L5.1012784,23.3040186 C5.11144219,23.3390987 5.11321946,23.3572206 5.12143935,23.3716849 C5.32760315,23.73368 5.53321155,24.096063 5.74292989,24.4559522 C5.76725633,24.4976825 5.810744,24.5335385 5.8532875,24.558754 C6.19724558,24.7626949 6.54192568,24.9655828 6.88871629,25.1647023 C7.2395613,25.3662048 7.5948495,25.5600595 7.94513912,25.7625595 C8.55691019,26.1162973 9.16512671,26.4762419 9.77711993,26.8297025 C10.4162166,27.1987358 11.0574238,27.5641115 11.6995751,27.92788 C11.748228,27.9554231 11.8116545,27.9688344 11.8682495,27.9688899 C14.0712919,27.9709404 16.2743897,27.9707187 18.477432,27.969832 C18.5224748,27.9697766 18.5733493,27.969444 18.6116718,27.9498812 C18.7875664,27.86038 18.962128,27.7677753 19.1331351,27.6693516 C19.5020306,27.4569871 19.8709816,27.244678 20.2344341,27.0232801 C20.3839473,26.932338 20.5571204,26.8891668 20.5559541,26.6264266 C20.5431799,23.6523253 20.5478453,20.6782239 20.5478453,17.7041226 L20.5478453,17.5165856 L21.7233455,17.5165856 L21.7233455,26.1472763 C21.7857167,26.120897 21.8297598,26.107652 21.8683599,26.0851519 C22.1263979,25.9348009 22.3822143,25.7807369 22.6406411,25.6311617 C23.2580217,25.273711 23.8767908,24.9185878 24.4938381,24.560472 C24.5358817,24.5360877 24.578814,24.5010077 24.6030294,24.4600532 C24.8103595,24.1091973 25.0135242,23.7559029 25.2178551,23.4032181 C25.5996914,22.7440678 25.9821385,22.0851391 26.3629751,21.4254346 C26.7047671,20.8332301 27.0441709,20.2396402 27.386074,19.6474911 C27.5678003,19.3327681 27.7556359,19.0214257 27.9341964,18.7049294 C27.9780174,18.6272323 28.0223937,18.5352927 28.0226158,18.4497816 C28.0273923,16.2422874 28.0266702,14.0347933 28.0245597,11.8272992 C28.0245042,11.7759261 28.0066204,11.7191773 27.980961,11.674011 C27.6717153,11.1296883 27.3599703,10.5868065 27.047781,10.0441463 C26.6849394,9.41337036 26.3208759,8.78325944 25.9575899,8.15270518 C25.7791961,7.84302534 25.6015242,7.53290215 25.4233525,7.22311147 C25.2224094,6.8736964 25.0315191,6.5179636 24.8161912,6.1776372 C24.6921708,5.98156575 24.6208577,5.73478616 24.3742609,5.63475536 C24.3274964,5.61574674 24.2807318,5.59524181 24.2372997,5.56969378 C23.6655173,5.23380088 23.0964008,4.89336365 22.5224524,4.56118381 C21.9254549,4.21575889 21.3236254,3.87870219 20.7246285,3.53682407 C20.0735353,3.16524152 19.4213868,2.7955432 18.7739591,2.4176429 C18.6316661,2.33457023 18.4895397,2.30120816 18.3278078,2.30819092 C18.1326409,2.31661457 18.1288642,2.31351112 18.1288086,2.51401607 C18.1285309,3.46538934 18.1286975,4.41670719 18.1286975,5.36808046 C18.1286975,7.14607944 18.1297528,8.92407843 18.1266426,10.7020774 C18.1264204,10.8280442 18.1529684,10.8802486 18.2947061,10.8788077 C18.9888427,10.8715479 19.6831459,10.8724346 20.3773381,10.8781427 C20.5105225,10.8792511 20.5517331,10.8404026 20.5507334,10.705735 C20.5448461,9.93918323 20.5478453,9.17252057 20.5478453,8.40591334 L20.5478453,8.23793918 C20.5929992,8.23184312 20.6242681,8.22391824 20.655537,8.22391824 C21.8542528,8.22325322 23.0529687,8.2246941 24.2516845,8.22103647 C24.3664298,8.22070396 24.3759271,8.27268672 24.3764269,8.36440471 C24.3833694,9.52681249 24.3932555,10.6892203 24.402253,11.851628 C24.4026973,11.9103165 24.4023085,11.9689495 24.4023085,12.0366158 L16.1244878,12.0366158 L16.1244878,10.8754826 C16.350146,10.8754826 16.5668068,10.8702732 16.7830789,10.8775885 C16.8995459,10.8815232 16.945033,10.8515417 16.9448664,10.7243557 C16.9414229,7.97187388 16.9415895,5.21944743 16.9445331,2.46702099 C16.9446998,2.34515521 16.9065439,2.30586333 16.7857448,2.30802466 C16.438732,2.31412072 16.0915526,2.31001974 15.7444288,2.31007516 C15.5278791,2.31013057 15.5278235,2.31018599 15.5278235,2.53064169 C15.527768,7.13959545 15.527768,11.7485492 15.527768,16.357503 L15.527768,16.5591163 C15.1973616,16.5591163 14.8881715,16.5607234 14.5789258,16.5586175 C14.3141119,16.5568441 14.3395492,16.5975215 14.3394936,16.3260251 C14.3390493,11.7586354 14.3390493,7.1912457 14.3393825,2.62385598 C14.3393825,2.2430185 14.3451587,2.31545077 14.0289705,2.31074018 C13.8111989,2.30747048 13.8111434,2.31018599 13.8111434,2.52637444 C13.8110878,7.13532821 13.8110878,11.744282 13.8110878,16.3532357 L13.8110878,16.548753 L12.6107613,16.548753 C12.6107613,16.2393503 12.6067069,15.9400337 12.6128718,15.6408834 C12.6150934,15.5306556 12.5761045,15.4961851 12.4684683,15.4971273 C12.0149302,15.5012282 11.561281,15.4957972 11.1077984,15.5026137 C11.0484263,15.5035004 10.977502,15.5425152 10.9330146,15.5855755 C10.7628961,15.7502246 10.6117167,15.9354894 10.4343781,16.0914377 C10.0866433,16.3972382 9.65882013,16.524535 9.20828114,16.5546274 C8.75624258,16.5847752 8.32403174,16.4953848 7.92481154,16.2611298 C7.58463017,16.0615116 7.30670894,15.8044795 7.09971204,15.4697504 C6.79679789,14.9797935 6.70765649,14.4520963 6.79041081,13.8842761 C6.85633657,13.4322255 7.05489141,13.0461233 7.35291806,12.7139988 C7.69587643,12.3318313 8.12858713,12.0885431 8.63788724,11.9952734 C8.97634687,11.9332598 9.31769458,11.9422377 9.64810094,12.0317389 C10.0968627,12.1533276 10.4771438,12.3962833 10.7953314,12.7372747 C10.8326541,12.7773424 10.9029675,12.8064373 10.9583407,12.8069915 C11.4673631,12.8122562 11.9764966,12.8102612 12.4856301,12.8098732 C12.5216755,12.8098178 12.5576653,12.8059939 12.6107613,12.8029459 Z M29.9992223,15.1429462 C29.9992223,16.6299414 29.998778,18.1169367 29.9999999,19.6039319 C30.0000554,19.7209763 29.9801722,19.8186795 29.9078038,19.9235317 C29.7651775,20.1300773 29.6553198,20.3590675 29.5288001,20.5769185 C29.2799817,21.0052499 29.0274422,21.4314199 28.7792903,21.8601391 C28.5151429,22.3164569 28.2562718,22.7757673 27.991458,23.2316417 C27.7272551,23.6864632 27.4561653,24.1372946 27.1925177,24.5924486 C26.9954625,24.9327195 26.8059051,25.2773132 26.6121822,25.6195792 C26.517709,25.7865559 26.4401199,25.9677197 26.3201539,26.1142468 C26.2254029,26.2300165 26.0839986,26.3131446 25.9522581,26.3925042 C25.5831961,26.6147887 25.2094131,26.8292592 24.8357412,27.0438959 C24.2588491,27.3752999 23.6797355,27.7026029 23.1031767,28.0345611 C22.5175648,28.371784 21.9346745,28.7137175 21.3492848,29.0513838 C20.8931363,29.3145119 20.4255466,29.5595736 19.9820612,29.8423753 C19.7930037,29.962911 19.6108331,29.9969381 19.399393,29.9967165 C16.6225133,29.9938901 13.8456336,29.9911746 11.0688094,29.9999862 C10.762674,30.0009837 10.4982489,29.9482251 10.2409885,29.7754295 C9.95190373,29.5811869 9.6366042,29.4260698 9.33507854,29.2499491 C8.76051915,28.9144442 8.18923661,28.5734527 7.6133998,28.2401091 C7.28710338,28.0512421 6.95214275,27.8772273 6.62529094,27.6891916 C6.1439829,27.4124304 5.66661818,27.1288528 5.1871985,26.848822 C4.90272356,26.6827321 4.62669068,26.4981323 4.32938604,26.3590867 C4.10789326,26.2555645 3.99814658,26.0761741 3.88839991,25.88703 C3.58504144,25.364376 3.28818112,24.8379535 2.98693316,24.3140249 C2.65819299,23.7421591 2.32850865,23.1709028 1.99715811,22.6006441 C1.72817878,22.1378424 1.45386763,21.678144 1.18588802,21.2147881 C0.850316456,20.6343877 0.535239082,20.0413519 0.17756267,19.4749726 C0.0309930964,19.2428235 0.000834976568,19.0171585 0.00122375528,18.7612902 C0.00466722384,16.2722136 0.0045006044,13.7830815 1.87933412e-06,11.2940048 C-0.000275819744,11.1589494 0.030215539,11.0432351 0.0958080612,10.9322314 C0.432268264,10.3627486 0.77389367,9.79631375 1.10591069,9.22433708 C1.37433462,8.7618124 1.62770725,8.29064239 1.89513147,7.82756351 C2.14428308,7.39612873 2.40631993,6.97212006 2.65686004,6.54146114 C2.93578099,6.0619229 3.20692637,5.57784033 3.48373681,5.09702747 C3.66901764,4.77515551 3.84596749,4.44735374 4.05218682,4.13928104 C4.12844299,4.02534014 4.27034722,3.94719974 4.39520073,3.8748783 C5.04435009,3.49869599 5.6981648,3.13038314 6.34948022,2.75780304 C6.79718667,2.50171311 7.24372679,2.24357268 7.69037798,1.98559852 C8.15669027,1.71626351 8.62150299,1.44443466 9.08870392,1.17676221 C9.67031687,0.843418573 10.2617048,0.526257204 10.8322654,0.175179575 C11.0534249,0.0390711845 11.2685306,-0.000276110977 11.5175711,0.000222657557 C14.0259714,0.00537659907 16.5344271,0.00454531818 19.0428274,9.82652996e-07 C19.1752343,-0.000220692251 19.2853142,0.0370761103 19.3924505,0.0986463149 C19.8863105,0.382390192 20.378671,0.668627912 20.871698,0.953646419 C21.3091295,1.20646665 21.7465056,1.45945313 22.184437,1.71144208 C22.6755201,1.99407758 23.1680472,2.27421924 23.6583527,2.55812937 C24.2206933,2.88376981 24.7807568,3.21328955 25.3428753,3.53937334 C25.5971365,3.68684257 25.8582848,3.82306179 26.1073808,3.97867758 C26.2044644,4.03936108 26.2984378,4.12659016 26.3567546,4.22385002 C26.6674999,4.74245846 26.9679147,5.26738463 27.2692182,5.79159036 C27.6089553,6.3824094 27.944027,6.97588853 28.2844305,7.56626422 C28.558464,8.04142438 28.8387179,8.51309315 29.1139732,8.98753287 C29.3707893,9.43021765 29.6113878,9.88309948 29.8870874,10.3135921 C29.9863926,10.4687092 29.9992779,10.6149592 29.9992779,10.7789432 C29.9991668,12.2335739 29.9992223,13.68826 29.9992223,15.1429462 Z M16.1538462,12.6120132 L18.712257,12.6120132 L18.712257,15.540511 C18.8290396,15.540511 18.9327671,15.5479122 19.0342457,15.5357962 C19.0629339,15.5323424 19.1036899,15.4732428 19.1063229,15.4372239 C19.1154285,15.3145841 19.1100529,15.1909027 19.1100529,15.067605 C19.1101077,14.3049576 19.1100529,13.5423103 19.1100529,12.7796629 L19.1100529,12.611465 L20.1923077,12.611465 L20.1923077,16.6242038 L17.6784377,16.6242038 L17.6784377,13.7107824 L17.3393348,13.7107824 L17.3393348,16.6226688 L16.1538462,16.6226688 L16.1538462,12.6120132 Z M20.1923077,17.5796178 L20.1923077,20.1246345 C20.1313121,20.127606 20.0736375,20.1328337 20.0159629,20.1328337 C19.1444786,20.133384 18.2729942,20.1360804 17.4015099,20.1303024 C17.2668436,20.129422 17.2158109,20.169978 17.2357369,20.3004508 C17.2398328,20.3273598 17.2395007,20.3558646 17.2357923,20.3828286 C17.2194087,20.5002596 17.2746479,20.532011 17.3862887,20.5312406 C17.9396217,20.5272236 18.4929548,20.5294247 19.0462878,20.5294247 C19.392114,20.5294247 19.7379403,20.5293146 20.0837665,20.5298099 C20.1151499,20.5298099 20.1465887,20.533937 20.1876583,20.5367985 L20.1876583,21.5923567 L16.1644394,21.5923567 C16.1617826,21.5425008 16.1573546,21.4978726 16.1572993,21.4533545 C16.1568565,20.7198236 16.1602882,19.9862926 16.1538676,19.2528718 C16.1527606,19.1226191 16.1943837,19.0927936 16.3180354,19.093454 C17.1802763,19.0981864 18.0425725,19.0959303 18.9048134,19.0959303 L19.0886305,19.0959303 C19.0886305,19.0142128 19.0827634,18.9468028 19.0899589,18.8807685 C19.1017484,18.7726374 19.061343,18.7369789 18.9508646,18.7387948 C18.5913116,18.7447929 18.2315925,18.7409959 17.8719288,18.7409959 C17.3462707,18.7409409 16.8205572,18.7382445 16.2949545,18.7431421 C16.185417,18.7441326 16.1521517,18.7110604 16.1546425,18.6022689 C16.1615612,18.3044542 16.1567458,18.0063644 16.1573546,17.7083847 C16.1574653,17.6682138 16.1621147,17.628043 16.165159,17.5796178 L20.1923077,17.5796178 Z M11.5384615,17.5796178 L15.5737707,17.5796178 L15.5737707,18.1154786 C15.5737707,18.2713404 15.5663421,18.4276422 15.5761545,18.5828988 C15.5836386,18.7017895 15.5366829,18.7277023 15.4256412,18.7272071 C14.5573207,18.723411 13.6889448,18.7251165 12.8205689,18.7251165 L12.6452749,18.7251165 C12.6418932,18.7821136 12.6370147,18.8260168 12.6369593,18.869975 C12.6364603,19.346638 12.6406736,19.823411 12.6340211,20.300019 C12.6321916,20.430078 12.668337,20.473541 12.804492,20.4726608 C13.6682111,20.4669391 14.5319857,20.4697449 15.3957049,20.4697999 L15.5653442,20.4697999 L15.5653442,21.5923567 L11.5384615,21.5923567 L11.5384615,17.5796178 Z" id="Combined-Shape"></path>
            </g>
        </g>
    </g>
</svg>